<svg width="82" height="82" viewBox="0 0 82 82" fill="none" xmlns="http://www.w3.org/2000/svg">
<g clip-path="url(#clip0_2_490)">
<path d="M14.9425 76.5885C13.9451 77.0244 13.2461 78.018 13.2461 79.175C13.2461 80.7317 14.5138 81.9985 16.0705 81.9985C17.628 81.9985 18.8954 80.7317 18.8954 79.175C18.8954 77.8235 17.9414 76.6968 16.6731 76.4182L9.87715 68.5605V43.521L33.7099 19.6855C33.8437 19.5514 33.9174 19.3712 33.9174 19.1839V5.54882C35.131 5.23041 36.0321 4.13634 36.0321 2.82436C36.0321 1.2662 34.7644 0 33.2071 0C31.6505 0 30.3828 1.26769 30.3828 2.82436C30.3828 4.13634 31.2845 5.23041 32.4966 5.54882V18.8899L8.66506 42.7248C8.53187 42.858 8.45605 43.0384 8.45605 43.2269V68.8266C8.45605 68.9958 8.5173 69.1611 8.62938 69.2901L14.9425 76.5885ZM16.0708 77.7709C16.845 77.7709 17.4749 78.4009 17.4749 79.1753C17.4749 79.9495 16.845 80.578 16.0708 80.578C15.2966 80.578 14.6672 79.9495 14.6672 79.1753C14.6672 78.4009 15.2978 77.7709 16.0708 77.7709ZM31.8039 2.82436C31.8039 2.05019 32.4333 1.4208 33.2074 1.4208C33.9816 1.4208 34.6116 2.04989 34.6116 2.82436C34.6116 3.59912 33.9816 4.22851 33.2074 4.22851C32.433 4.22999 31.8039 3.59912 31.8039 2.82436Z" fill="#2A579A"/>
<path d="M20.8345 76.5956L13.8851 68.5605V43.5209L37.7188 19.6855C37.852 19.5514 37.9263 19.3712 37.9263 19.1839V5.16172C37.9263 4.76958 37.6079 4.45117 37.2157 4.45117C36.823 4.45117 36.5052 4.76958 36.5052 5.16172V18.8899L12.6716 42.7248C12.5384 42.858 12.4641 43.0384 12.4641 43.2257V68.8245C12.4641 68.9963 12.5271 69.1601 12.6374 69.2904L19.7601 77.5238C19.901 77.6864 20.0978 77.7709 20.297 77.7709C20.4623 77.7709 20.6264 77.7126 20.7617 77.5975C21.0593 77.341 21.0905 76.8926 20.8345 76.5956Z" fill="#2A579A"/>
<path d="M44.7267 18.6809L20.6859 42.7248C20.4091 43.0025 20.4091 43.4517 20.6859 43.7294C20.8253 43.8683 21.0069 43.936 21.1874 43.936C21.3691 43.936 21.551 43.8668 21.6904 43.7294L45.5217 19.8945H62.2038C62.5213 21.1063 63.6177 22.0089 64.9273 22.0089C66.4843 22.0089 67.7511 20.7415 67.7511 19.184C67.7511 17.6258 66.4843 16.3596 64.9273 16.3596C63.6177 16.3596 62.5213 17.2616 62.2038 18.4734H45.2288C45.0403 18.4737 44.8596 18.5492 44.7267 18.6809ZM64.9288 17.7807C65.703 17.7807 66.3332 18.4098 66.3332 19.1843C66.3332 19.9584 65.7033 20.5884 64.9288 20.5884C64.1546 20.5884 63.5247 19.9584 63.5247 19.1843C63.5247 18.4098 64.1546 17.7807 64.9288 17.7807Z" fill="#2A579A"/>
<path d="M25.8634 82C27.421 82 28.6878 80.7317 28.6878 79.175C28.6878 77.6169 27.421 76.3498 25.8634 76.3498C25.4909 76.3498 25.1356 76.4277 24.8104 76.5594L17.8928 68.5617V43.5209L41.7255 19.6855C41.8587 19.5514 41.9331 19.3712 41.9331 19.1839V5.16172C41.9331 4.76958 41.6146 4.45117 41.2225 4.45117C40.8304 4.45117 40.512 4.76958 40.512 5.16172V18.8899L16.6807 42.7248C16.5469 42.858 16.4732 43.0384 16.4732 43.2257V68.8245C16.4732 68.9963 16.5344 69.1602 16.6465 69.2904L23.6735 77.4129C23.2829 77.8987 23.0403 78.5049 23.0403 79.1753C23.0391 80.732 24.3059 82 25.8634 82ZM25.8634 77.7709C26.6376 77.7709 27.267 78.4009 27.267 79.1753C27.267 79.9495 26.6376 80.578 25.8634 80.578C25.0892 80.578 24.4599 79.9495 24.4599 79.1753C24.4599 78.4009 25.0889 77.7709 25.8634 77.7709Z" fill="#2A579A"/>
<path d="M56.038 42.396C56.038 42.0562 56.3133 41.7808 56.6532 41.7808H63.4601C63.7999 41.7808 64.0753 42.0562 64.0753 42.396C64.0753 42.7358 63.7999 43.0112 63.4601 43.0112H56.6532C56.3133 43.0112 56.038 42.7358 56.038 42.396Z" fill="#2A579A"/>
<path d="M56.6532 38.5037H63.4601C63.7999 38.5037 64.0753 38.7791 64.0753 39.1189C64.0753 39.4587 63.7999 39.7341 63.4601 39.7341H56.6532C56.3133 39.7341 56.038 39.4587 56.038 39.1189C56.038 38.7791 56.3133 38.5037 56.6532 38.5037Z" fill="#2A579A"/>
<path d="M36.3689 70.366C36.029 70.366 35.7537 70.0905 35.7537 69.7507V43.3868C35.7537 42.5738 36.0702 41.8094 36.6451 41.2344L42.988 34.8915C43.563 34.3166 44.3273 34 45.1404 34H65.6114C67.5109 34 69.0562 35.5453 69.0562 37.4448V46.2384H70.1899C71.6746 46.2384 72.8824 47.4463 72.8824 48.931V68.8133C72.8824 70.4624 71.5408 71.8042 69.8916 71.8042H69.0561V72.561C69.0561 74.4573 67.5132 76.0001 65.6169 76.0001H38.7975C37.1191 76.0001 35.7537 74.6346 35.7537 72.9563V72.6308C35.7537 72.291 36.029 72.0155 36.3689 72.0155C36.7087 72.0155 36.9841 72.291 36.9841 72.6308V72.9563C36.9841 73.9562 37.7976 74.7697 38.7975 74.7697H65.617C66.8349 74.7697 67.8257 73.7788 67.8257 72.561V71.8042H49.942C48.2929 71.8042 46.9512 70.4624 46.9512 68.8133V53.384C46.9512 51.7349 48.2928 50.3931 49.942 50.3931H61.9063C62.2462 50.3931 62.5216 50.6686 62.5216 51.0084C62.5216 51.3482 62.2462 51.6236 61.9063 51.6236H49.942C48.9714 51.6236 48.1817 52.4133 48.1817 53.384V68.8132C48.1817 69.7839 48.9714 70.5736 49.942 70.5736H69.8917C70.8623 70.5736 71.6521 69.7839 71.6521 68.8132V51.1911C71.2307 51.4646 70.7285 51.6235 70.1899 51.6235H64.8459C64.5061 51.6235 64.2307 51.3481 64.2307 51.0083C64.2307 50.6685 64.5061 50.3931 64.8459 50.3931H67.8257V37.4448C67.8257 36.2238 66.8324 35.2305 65.6114 35.2305H45.1404C45.0074 35.2305 44.8765 35.2447 44.7496 35.2725V40.8751C44.7496 42.0446 43.7981 42.996 42.6288 42.996H37.0261C36.9984 43.1229 36.9841 43.2537 36.9841 43.3868V69.7507C36.9841 70.0905 36.7087 70.366 36.3689 70.366ZM70.1898 50.3931C70.9961 50.3931 71.652 49.7371 71.652 48.9309C71.652 48.1247 70.9961 47.4688 70.1899 47.4688H69.0562V50.3931H70.1898ZM43.5192 40.8751V36.1006L37.8541 41.7655H42.6287C43.1197 41.7656 43.5192 41.3661 43.5192 40.8751Z" fill="#2A579A"/>
<path d="M54.653 67.7511C54.6592 67.7994 54.6829 67.8436 54.7196 67.8752C54.7563 67.9068 54.8033 67.9236 54.8515 67.9223H57.4233C57.4542 67.9237 57.4849 67.9175 57.5128 67.9044C57.5408 67.8913 57.5653 67.8715 57.584 67.8469C57.6028 67.8222 57.6154 67.7933 57.6208 67.7627C57.6261 67.7321 57.6241 67.7006 57.6148 67.671L57.2858 66.5853L58.3108 65.9332C58.4425 65.8603 58.5967 65.8405 58.7423 65.8777L58.7427 65.8778C58.7467 65.8789 58.7507 65.8799 58.7547 65.8806L60.8953 66.2778C61.4855 66.3842 62.094 66.2977 62.6319 66.0309C62.6404 66.0267 62.6486 66.0219 62.6564 66.0165L66.3585 63.4558C66.4005 63.4268 66.43 63.3826 66.4408 63.3324C66.4516 63.2823 66.443 63.2298 66.4167 63.1858C66.2766 62.9508 66.052 62.7793 65.7896 62.707C65.5272 62.6347 65.2472 62.6672 65.0079 62.7977L64.9735 62.8164C64.704 62.5099 64.2562 62.3954 63.9127 62.5709L63.9082 62.5732L63.7832 62.6411C63.5993 62.4916 63.3748 62.4017 63.1393 62.383C62.9037 62.3644 62.6681 62.4179 62.4633 62.5366L61.6707 62.9711H60.6134C60.3883 62.9707 60.1662 62.9193 59.9635 62.8208L59.8167 62.7492C59.392 62.541 58.9183 62.4552 58.4482 62.5015C57.9781 62.5477 57.5298 62.7241 57.1531 63.0111C57.1487 63.0144 57.1445 63.0179 57.1403 63.0216L56.7858 63.3395C56.6664 63.4465 56.5269 63.5281 56.3755 63.5796L56.1859 62.9471C56.1737 62.9051 56.1486 62.8681 56.1142 62.8414C56.0798 62.8147 56.038 62.7996 55.9946 62.7984H54.28C54.2513 62.7995 54.2232 62.8066 54.1974 62.8194C54.1716 62.8321 54.1488 62.8501 54.1303 62.8722C54.1115 62.8936 54.0974 62.9187 54.089 62.946C54.0806 62.9732 54.0781 63.0019 54.0815 63.0302L54.653 67.7511ZM64.0956 62.9295C64.2579 62.8479 64.4585 62.9028 64.6027 63.0181L63.2504 63.753L63.2085 63.7753C63.1694 63.6754 63.1179 63.581 63.0552 63.4942L64.0956 62.9295ZM62.6568 62.8892L62.6615 62.8865C62.7703 62.8231 62.8928 62.7875 63.0183 62.7827C63.1439 62.7779 63.2687 62.8041 63.382 62.859L62.7562 63.1986C62.6492 63.1232 62.5312 63.0651 62.4064 63.0263L62.6568 62.8892ZM57.0518 63.6405L57.4001 63.3282C57.718 63.0878 58.0955 62.9405 58.4911 62.9023C58.8868 62.8641 59.2852 62.9366 59.6426 63.1118L59.7895 63.1836C60.0465 63.3085 60.328 63.3736 60.6134 63.3741H62.0372C62.2283 63.3743 62.4138 63.4385 62.5645 63.5567C62.7153 63.6749 62.8227 63.8403 62.8698 64.0268L61.8904 63.982C61.5127 63.9648 61.1343 63.9824 60.7598 64.0346C60.7079 64.0426 60.6613 64.0709 60.6299 64.1134C60.5986 64.1558 60.585 64.209 60.5922 64.2613C60.5994 64.3137 60.6268 64.3612 60.6684 64.3934C60.71 64.4257 60.7626 64.4402 60.8147 64.4337C61.165 64.385 61.519 64.3685 61.8723 64.3845L63.0867 64.4398L63.0958 64.44C63.1488 64.44 63.1997 64.4188 63.2372 64.381C63.2747 64.3432 63.2958 64.292 63.2958 64.2385C63.2958 64.2206 63.2952 64.2027 63.2945 64.1849L63.4385 64.1085L65.1978 63.1523C65.318 63.0867 65.4555 63.0606 65.5911 63.0774C65.7267 63.0943 65.8538 63.1533 65.9545 63.2463L62.4419 65.6759C61.9842 65.8997 61.4679 65.9716 60.9671 65.8814L58.8331 65.4856C58.5886 65.4251 58.3305 65.4605 58.1109 65.5846C58.1078 65.5864 58.1047 65.5882 58.1017 65.5901L57.1645 66.187L56.4921 63.9653C56.6988 63.8968 56.8893 63.7862 57.0518 63.6405V63.6405ZM55.8464 63.2014L57.1532 67.5193H55.0287L54.5059 63.2014H55.8464Z" fill="#496FA9"/>
<path d="M54.653 67.7511C54.6592 67.7994 54.6829 67.8436 54.7196 67.8752C54.7563 67.9068 54.8033 67.9236 54.8515 67.9223H57.4233C57.4542 67.9237 57.4849 67.9175 57.5128 67.9044C57.5408 67.8913 57.5653 67.8715 57.584 67.8469C57.6028 67.8222 57.6154 67.7933 57.6208 67.7627C57.6261 67.7321 57.6241 67.7006 57.6148 67.671L57.2858 66.5853L58.3108 65.9332C58.4425 65.8603 58.5967 65.8405 58.7423 65.8777L58.7427 65.8778C58.7467 65.8789 58.7507 65.8799 58.7547 65.8806L60.8953 66.2778C61.4855 66.3842 62.094 66.2977 62.6319 66.0309C62.6404 66.0267 62.6486 66.0219 62.6564 66.0165L66.3585 63.4558C66.4005 63.4268 66.43 63.3826 66.4408 63.3324C66.4516 63.2823 66.443 63.2298 66.4167 63.1858C66.2766 62.9508 66.052 62.7793 65.7896 62.707C65.5272 62.6347 65.2472 62.6672 65.0079 62.7977L64.9735 62.8164C64.704 62.5099 64.2562 62.3954 63.9127 62.5709L63.9082 62.5732L63.7832 62.6411C63.5993 62.4916 63.3748 62.4017 63.1393 62.383C62.9037 62.3644 62.6681 62.4179 62.4633 62.5366L61.6707 62.9711H60.6134C60.3883 62.9707 60.1662 62.9193 59.9635 62.8208L59.8167 62.7492C59.392 62.541 58.9183 62.4552 58.4482 62.5015C57.9781 62.5477 57.5298 62.7241 57.1531 63.0111C57.1487 63.0144 57.1445 63.0179 57.1403 63.0216L56.7858 63.3395C56.6664 63.4465 56.5269 63.5281 56.3755 63.5796L56.1859 62.9471C56.1737 62.9051 56.1486 62.8681 56.1142 62.8414C56.0798 62.8147 56.038 62.7996 55.9946 62.7984H54.28C54.2513 62.7995 54.2232 62.8066 54.1974 62.8194C54.1716 62.8321 54.1488 62.8501 54.1303 62.8722C54.1115 62.8936 54.0974 62.9187 54.089 62.946C54.0806 62.9732 54.0781 63.0019 54.0815 63.0302L54.653 67.7511ZM64.0956 62.9295C64.2579 62.8479 64.4585 62.9028 64.6027 63.0181L63.2504 63.753L63.2085 63.7753C63.1694 63.6754 63.1179 63.581 63.0552 63.4942L64.0956 62.9295ZM62.6568 62.8892L62.6615 62.8865C62.7703 62.8231 62.8928 62.7875 63.0183 62.7827C63.1439 62.7779 63.2687 62.8041 63.382 62.859L62.7562 63.1986C62.6492 63.1232 62.5312 63.0651 62.4064 63.0263L62.6568 62.8892ZM57.0518 63.6405L57.4001 63.3282C57.718 63.0878 58.0955 62.9405 58.4911 62.9023C58.8868 62.8641 59.2852 62.9366 59.6426 63.1118L59.7895 63.1836C60.0465 63.3085 60.328 63.3736 60.6134 63.3741H62.0372C62.2283 63.3743 62.4138 63.4385 62.5645 63.5567C62.7153 63.6749 62.8227 63.8403 62.8698 64.0268L61.8904 63.982C61.5127 63.9648 61.1343 63.9824 60.7598 64.0346C60.7079 64.0426 60.6613 64.0709 60.6299 64.1134C60.5986 64.1558 60.585 64.209 60.5922 64.2613C60.5994 64.3137 60.6268 64.3612 60.6684 64.3934C60.71 64.4257 60.7626 64.4402 60.8147 64.4337C61.165 64.385 61.519 64.3685 61.8723 64.3845L63.0867 64.4398L63.0958 64.44C63.1488 64.44 63.1997 64.4188 63.2372 64.381C63.2747 64.3432 63.2958 64.292 63.2958 64.2385C63.2958 64.2206 63.2952 64.2027 63.2945 64.1849L63.4385 64.1085L65.1978 63.1523C65.318 63.0867 65.4555 63.0606 65.5911 63.0774C65.7267 63.0943 65.8538 63.1533 65.9545 63.2463L62.4419 65.6759C61.9842 65.8997 61.4679 65.9716 60.9671 65.8814L58.8331 65.4856C58.5886 65.4251 58.3305 65.4605 58.1109 65.5846C58.1078 65.5864 58.1047 65.5882 58.1017 65.5901L57.1645 66.187L56.4921 63.9653C56.6988 63.8968 56.8893 63.7862 57.0518 63.6405V63.6405ZM55.8464 63.2014L57.1532 67.5193H55.0287L54.5059 63.2014H55.8464Z" stroke="#2A579A"/>
<path d="M63.7027 58.5267L63.1489 58.5767C63.0861 58.7905 62.9939 58.9957 62.8749 59.1873L63.2266 59.5855C63.259 59.6222 63.2757 59.6689 63.2733 59.7165C63.2709 59.7641 63.2497 59.8092 63.2137 59.8429L62.5496 60.4655C62.5137 60.4992 62.4656 60.5191 62.4149 60.5213C62.3641 60.5236 62.3143 60.508 62.2751 60.4776L61.8495 60.147C61.6452 60.2583 61.4268 60.3449 61.1993 60.4046L61.1459 60.9256C61.1411 60.9731 61.1176 61.0173 61.08 61.0496C61.0425 61.0818 60.9935 61.0999 60.9425 61.1002H60.001C59.9501 61.0998 59.9011 61.0817 59.8636 61.0495C59.826 61.0172 59.8026 60.973 59.7978 60.9255L59.7444 60.4055C59.5164 60.3464 59.2975 60.2599 59.0931 60.1482L58.6684 60.4777C58.6292 60.508 58.5794 60.5236 58.5286 60.5214C58.4779 60.5191 58.4298 60.4992 58.3939 60.4655L57.7299 59.8429C57.694 59.8092 57.6727 59.7642 57.6703 59.7166C57.6679 59.669 57.6846 59.6222 57.717 59.5855L58.0698 59.1863C57.951 58.9948 57.8586 58.7899 57.7949 58.5766L57.2492 58.5267C57.1988 58.5221 57.152 58.5 57.1179 58.4648C57.0838 58.4296 57.065 58.3838 57.065 58.3363V57.4536C57.065 57.406 57.0839 57.3601 57.118 57.3249C57.1521 57.2897 57.199 57.2677 57.2495 57.2631L57.8032 57.2131C57.8661 56.9993 57.9582 56.7941 58.0773 56.6025L57.7256 56.2043C57.6933 56.1678 57.6767 56.1213 57.6789 56.0739C57.6811 56.0266 57.702 55.9816 57.7376 55.9479L58.3931 55.3253C58.429 55.2913 58.4771 55.2711 58.5281 55.2687C58.579 55.2663 58.6291 55.2819 58.6684 55.3123L59.0941 55.6431C59.2983 55.5318 59.5168 55.4452 59.7442 55.3854L59.7976 54.8719C59.8027 54.825 59.8265 54.7818 59.8643 54.7507C59.902 54.7196 59.9509 54.7031 60.0011 54.7044H60.9425C60.9926 54.7032 61.0414 54.7197 61.0791 54.7507C61.1167 54.7818 61.1405 54.825 61.1457 54.8717L61.1991 55.388C61.427 55.4465 61.646 55.5323 61.8504 55.6435L62.2751 55.3131C62.3142 55.2826 62.3641 55.267 62.4148 55.2691C62.4656 55.2713 62.5137 55.2911 62.5496 55.3248L63.2137 55.9472C63.2496 55.9808 63.2708 56.0259 63.2732 56.0734C63.2756 56.121 63.259 56.1677 63.2266 56.2044L62.8738 56.6034C62.9926 56.7949 63.0849 56.9997 63.1486 57.213L63.7026 57.263C63.7531 57.2675 63.8001 57.2896 63.8342 57.3248C63.8683 57.3601 63.8872 57.406 63.8872 57.4536V58.3362C63.8872 58.3838 63.8683 58.4296 63.8342 58.4648C63.8001 58.5001 63.7532 58.5221 63.7027 58.5267ZM63.479 57.6273L62.9659 57.5809C62.9228 57.577 62.8822 57.5603 62.8499 57.5334C62.8175 57.5064 62.7952 57.4705 62.786 57.4309C62.7234 57.1672 62.6103 56.9163 62.4524 56.6904C62.4289 56.6562 62.4176 56.6159 62.4202 56.5753C62.4227 56.5347 62.439 56.496 62.4667 56.4646L62.7937 56.0944L62.3924 55.7181L61.9975 56.0247C61.9637 56.051 61.9218 56.0663 61.8779 56.0685C61.8341 56.0706 61.7906 56.0594 61.7541 56.0366C61.5145 55.888 61.2475 55.7825 60.9667 55.7255C60.9249 55.7182 60.8867 55.6983 60.8578 55.669C60.829 55.6396 60.8111 55.6023 60.8067 55.5625L60.7571 55.087H60.1863L60.1367 55.5625C60.1325 55.6026 60.1146 55.6403 60.0858 55.6701C60.057 55.7 60.0188 55.7204 59.9767 55.7283C59.6955 55.7865 59.4278 55.892 59.1866 56.0396C59.1501 56.0615 59.107 56.072 59.0637 56.0694C59.0204 56.0669 58.9791 56.0515 58.9458 56.0254L58.5518 55.7193L58.1572 56.0938L58.4854 56.4646C58.5133 56.4963 58.5297 56.5356 58.532 56.5767C58.5342 56.6178 58.5223 56.6585 58.498 56.6927C58.3395 56.9174 58.2269 57.1677 58.1661 57.4309C58.157 57.4705 58.1346 57.5064 58.1023 57.5334C58.07 57.5603 58.0293 57.577 57.9863 57.5809L57.4731 57.6273V58.1626L57.9782 58.2089C58.0212 58.2128 58.0618 58.2294 58.0941 58.2564C58.1264 58.2834 58.1487 58.3192 58.1579 58.3588C58.2205 58.6226 58.3334 58.8735 58.4914 59.0995C58.5149 59.1337 58.5262 59.174 58.5236 59.2146C58.521 59.2552 58.5047 59.294 58.4771 59.3253L58.1499 59.6953L58.5513 60.0716L58.9462 59.765C58.98 59.7387 59.0219 59.7234 59.0658 59.7212C59.1096 59.7191 59.153 59.7303 59.1895 59.7531C59.4291 59.9018 59.6962 60.0073 59.9769 60.0643C60.0194 60.0732 60.0577 60.0945 60.0864 60.1251C60.1152 60.1557 60.1329 60.1941 60.137 60.2347L60.1864 60.7175H60.7573L60.8068 60.2347C60.811 60.1942 60.8287 60.156 60.8574 60.1255C60.8862 60.0951 60.9245 60.074 60.9668 60.0652C61.2481 60.0063 61.5158 59.9003 61.7568 59.7521C61.7932 59.7301 61.8362 59.7194 61.8795 59.7218C61.9228 59.7242 61.9642 59.7394 61.9976 59.7653L62.3925 60.0718L62.7937 59.6953L62.4667 59.3251C62.4387 59.2934 62.4223 59.2541 62.4201 59.2129C62.4178 59.1718 62.4297 59.1311 62.4541 59.0969C62.6126 58.8723 62.7251 58.622 62.7859 58.3588C62.7951 58.3191 62.8174 58.2832 62.8497 58.2562C62.8821 58.2293 62.9227 58.2127 62.9658 58.2088L63.4789 58.1623L63.479 57.6273Z" fill="#496FA9"/>
<path d="M60.4757 59.8212C60.054 59.8212 59.6418 59.7086 59.2912 59.4978C58.9406 59.2869 58.6674 58.9873 58.506 58.6367C58.3446 58.2861 58.3024 57.9003 58.3847 57.5281C58.4669 57.1559 58.67 56.814 58.9682 56.5456C59.2663 56.2773 59.6462 56.0945 60.0598 56.0205C60.4733 55.9465 60.902 55.9845 61.2915 56.1297C61.6811 56.2749 62.0141 56.5209 62.2483 56.8364C62.4826 57.152 62.6076 57.5229 62.6076 57.9024C62.607 58.4111 62.3821 58.8988 61.9825 59.2585C61.5828 59.6183 61.0409 59.8206 60.4757 59.8212ZM60.4757 56.3681C60.1385 56.3681 59.8089 56.4581 59.5285 56.6267C59.2482 56.7953 59.0297 57.0349 58.9006 57.3153C58.7716 57.5956 58.7378 57.9041 58.8036 58.2018C58.8694 58.4994 59.0318 58.7728 59.2702 58.9873C59.5086 59.2019 59.8124 59.3481 60.1431 59.4073C60.4738 59.4665 60.8165 59.4361 61.1281 59.3199C61.4396 59.2038 61.7058 59.0072 61.8931 58.7548C62.0805 58.5025 62.1805 58.2059 62.1805 57.9024C62.1799 57.4957 62.0001 57.1057 61.6805 56.8181C61.3609 56.5304 60.9276 56.3687 60.4757 56.3682V56.3681Z" fill="#496FA9"/>
<path d="M60.4757 59.8212C60.054 59.8212 59.6418 59.7086 59.2912 59.4978C58.9406 59.2869 58.6674 58.9873 58.506 58.6367C58.3446 58.2861 58.3024 57.9003 58.3847 57.5281C58.4669 57.1559 58.67 56.814 58.9682 56.5456C59.2663 56.2773 59.6462 56.0945 60.0598 56.0205C60.4733 55.9465 60.902 55.9845 61.2915 56.1297C61.6811 56.2749 62.0141 56.5209 62.2483 56.8364C62.4826 57.152 62.6076 57.5229 62.6076 57.9024C62.607 58.4111 62.3821 58.8988 61.9825 59.2585C61.5828 59.6183 61.0409 59.8206 60.4757 59.8212ZM60.4757 56.3681C60.1385 56.3681 59.8089 56.4581 59.5285 56.6267C59.2482 56.7953 59.0297 57.0349 58.9006 57.3153C58.7716 57.5956 58.7378 57.9041 58.8036 58.2018C58.8694 58.4994 59.0318 58.7728 59.2702 58.9873C59.5086 59.2019 59.8124 59.3481 60.1431 59.4073C60.4738 59.4665 60.8165 59.4361 61.1281 59.3199C61.4396 59.2038 61.7058 59.0072 61.8931 58.7548C62.0805 58.5025 62.1805 58.2059 62.1805 57.9024C62.1799 57.4957 62.0001 57.1057 61.6805 56.8181C61.3609 56.5304 60.9276 56.3687 60.4757 56.3682V56.3681Z" stroke="#2A579A"/>
<path d="M60.16 58.4876C60.1937 58.5226 60.2389 58.5421 60.286 58.5421C60.3331 58.5421 60.3784 58.5226 60.4121 58.4876L61.2756 57.5925C61.2927 57.575 61.3065 57.5541 61.3159 57.5309C61.3254 57.5077 61.3305 57.4828 61.3309 57.4575C61.3313 57.4322 61.3269 57.4071 61.3181 57.3836C61.3093 57.3602 61.2962 57.3388 61.2796 57.3207C61.263 57.3026 61.2432 57.2882 61.2213 57.2783C61.1994 57.2684 61.1758 57.2632 61.152 57.2629C61.1282 57.2627 61.1046 57.2675 61.0826 57.277C61.0605 57.2866 61.0405 57.3006 61.0236 57.3184L60.286 58.0828L59.9327 57.7166C59.9158 57.6988 59.8958 57.6848 59.8737 57.6752C59.8517 57.6657 59.8281 57.6609 59.8043 57.6611C59.7805 57.6614 59.7569 57.6666 59.735 57.6765C59.7131 57.6864 59.6933 57.7008 59.6767 57.7189C59.66 57.737 59.647 57.7584 59.6382 57.7819C59.6294 57.8053 59.625 57.8304 59.6254 57.8557C59.6258 57.881 59.6308 57.9059 59.6403 57.9291C59.6498 57.9523 59.6636 57.9732 59.6807 57.9907L60.16 58.4876Z" fill="#496FA9"/>
<path d="M60.16 58.4876C60.1937 58.5226 60.2389 58.5421 60.286 58.5421C60.3331 58.5421 60.3784 58.5226 60.4121 58.4876L61.2756 57.5925C61.2927 57.575 61.3065 57.5541 61.3159 57.5309C61.3254 57.5077 61.3305 57.4828 61.3309 57.4575C61.3313 57.4322 61.3269 57.4071 61.3181 57.3836C61.3093 57.3602 61.2962 57.3388 61.2796 57.3207C61.263 57.3026 61.2432 57.2882 61.2213 57.2783C61.1994 57.2684 61.1758 57.2632 61.152 57.2629C61.1282 57.2627 61.1046 57.2675 61.0826 57.277C61.0605 57.2866 61.0405 57.3006 61.0236 57.3184L60.286 58.0828L59.9327 57.7166C59.9158 57.6988 59.8958 57.6848 59.8737 57.6752C59.8517 57.6657 59.8281 57.6609 59.8043 57.6611C59.7805 57.6614 59.7569 57.6666 59.735 57.6765C59.7131 57.6864 59.6933 57.7008 59.6767 57.7189C59.66 57.737 59.647 57.7584 59.6382 57.7819C59.6294 57.8053 59.625 57.8304 59.6254 57.8557C59.6258 57.881 59.6308 57.9059 59.6403 57.9291C59.6498 57.9523 59.6636 57.9732 59.6807 57.9907L60.16 58.4876Z" stroke="#2A579A"/>
</g>
<defs>
<clipPath id="clip0_2_490">
<rect width="82" height="82" fill="white"/>
</clipPath>
</defs>
</svg>
