<svg width="82" height="82" viewBox="0 0 82 82" fill="none" xmlns="http://www.w3.org/2000/svg">
<g clip-path="url(#clip0_2_473)">
<path d="M14.9429 76.5885C13.9455 77.0244 13.2465 78.018 13.2465 79.175C13.2465 80.7317 14.5142 81.9985 16.0709 81.9985C17.6284 81.9985 18.8958 80.7317 18.8958 79.175C18.8958 77.8235 17.9418 76.6968 16.6735 76.4182L9.87751 68.5605V43.521L33.7102 19.6855C33.844 19.5514 33.9178 19.3712 33.9178 19.1839V5.54882C35.1313 5.23041 36.0324 4.13634 36.0324 2.82436C36.0324 1.2662 34.7648 0 33.2075 0C31.6508 0 30.3832 1.26769 30.3832 2.82436C30.3832 4.13634 31.2849 5.23041 32.497 5.54882V18.8899L8.66542 42.7248C8.53223 42.858 8.45642 43.0384 8.45642 43.2269V68.8266C8.45642 68.9958 8.51766 69.1611 8.62975 69.2901L14.9429 76.5885ZM16.0712 77.7709C16.8453 77.7709 17.4753 78.4009 17.4753 79.1753C17.4753 79.9495 16.8453 80.578 16.0712 80.578C15.297 80.578 14.6676 79.9495 14.6676 79.1753C14.6676 78.4009 15.2982 77.7709 16.0712 77.7709ZM31.8043 2.82436C31.8043 2.05019 32.4336 1.4208 33.2078 1.4208C33.982 1.4208 34.6119 2.04989 34.6119 2.82436C34.6119 3.59912 33.982 4.22851 33.2078 4.22851C32.4333 4.22999 31.8043 3.59912 31.8043 2.82436Z" fill="#2A579A"/>
<path d="M20.8349 76.5956L13.8856 68.5605V43.5209L37.7192 19.6855C37.8524 19.5514 37.9267 19.3712 37.9267 19.1839V5.16172C37.9267 4.76958 37.6083 4.45117 37.2162 4.45117C36.8234 4.45117 36.5056 4.76958 36.5056 5.16172V18.8899L12.672 42.7248C12.5388 42.858 12.4645 43.0384 12.4645 43.2257V68.8245C12.4645 68.9963 12.5275 69.1601 12.6378 69.2904L19.7605 77.5238C19.9014 77.6864 20.0982 77.7709 20.2974 77.7709C20.4627 77.7709 20.6268 77.7126 20.7621 77.5975C21.0597 77.341 21.0909 76.8926 20.8349 76.5956Z" fill="#2A579A"/>
<path d="M44.7271 18.6809L20.6862 42.7248C20.4094 43.0025 20.4094 43.4517 20.6862 43.7294C20.8257 43.8683 21.0073 43.936 21.1878 43.936C21.3694 43.936 21.5514 43.8668 21.6908 43.7294L45.522 19.8945H62.2041C62.5216 21.1063 63.6181 22.0089 64.9277 22.0089C66.4846 22.0089 67.7514 20.7415 67.7514 19.184C67.7514 17.6258 66.4846 16.3596 64.9277 16.3596C63.6181 16.3596 62.5216 17.2616 62.2041 18.4734H45.2292C45.0407 18.4737 44.86 18.5492 44.7271 18.6809ZM64.9292 17.7807C65.7033 17.7807 66.3336 18.4098 66.3336 19.1843C66.3336 19.9584 65.7036 20.5884 64.9292 20.5884C64.155 20.5884 63.525 19.9584 63.525 19.1843C63.525 18.4098 64.155 17.7807 64.9292 17.7807Z" fill="#2A579A"/>
<path d="M25.8637 82C27.4213 82 28.6881 80.7317 28.6881 79.175C28.6881 77.6169 27.4213 76.3498 25.8637 76.3498C25.4912 76.3498 25.1359 76.4277 24.8107 76.5594L17.8931 68.5617V43.5209L41.7258 19.6855C41.859 19.5514 41.9334 19.3712 41.9334 19.1839V5.16172C41.9334 4.76958 41.6149 4.45117 41.2228 4.45117C40.8307 4.45117 40.5123 4.76958 40.5123 5.16172V18.8899L16.681 42.7248C16.5472 42.858 16.4735 43.0384 16.4735 43.2257V68.8245C16.4735 68.9963 16.5348 69.1602 16.6468 69.2904L23.6738 77.4129C23.2832 77.8987 23.0406 78.5049 23.0406 79.1753C23.0394 80.732 24.3062 82 25.8637 82ZM25.8637 77.7709C26.6379 77.7709 27.2673 78.4009 27.2673 79.1753C27.2673 79.9495 26.6379 80.578 25.8637 80.578C25.0896 80.578 24.4602 79.9495 24.4602 79.1753C24.4602 78.4009 25.0893 77.7709 25.8637 77.7709Z" fill="#2A579A"/>
<path d="M56.9698 42.8499C56.9698 42.497 57.2558 42.2109 57.6088 42.2109H64.6784C65.0314 42.2109 65.3174 42.497 65.3174 42.8499C65.3174 43.2028 65.0314 43.4889 64.6784 43.4889H57.6088C57.2558 43.4889 56.9698 43.2028 56.9698 42.8499Z" fill="#23467C"/>
<path d="M57.6088 38.8074H64.6784C65.0314 38.8074 65.3174 39.0935 65.3174 39.4464C65.3174 39.7992 65.0314 40.0853 64.6784 40.0853H57.6088C57.2558 40.0853 56.9698 39.7992 56.9698 39.4464C56.9698 39.0935 57.2558 38.8074 57.6088 38.8074Z" fill="#23467C"/>
<path d="M36.5418 71.8994C36.1888 71.8994 35.9028 71.6133 35.9028 71.2604V43.8787C35.9028 43.0343 36.2316 42.2405 36.8287 41.6433L43.4164 35.0556C44.0136 34.4585 44.8075 34.1296 45.6519 34.1296H66.9132C68.8859 34.1296 70.4909 35.7346 70.4909 37.7074V46.8405H71.6684C73.2104 46.8405 74.4648 48.095 74.4648 49.637V70.2868C74.4648 71.9996 73.0714 73.3931 71.3585 73.3931H70.4908V74.1791C70.4908 76.1486 68.8884 77.751 66.9189 77.751H39.0642C37.321 77.751 35.9028 76.3328 35.9028 74.5897V74.2516C35.9028 73.8987 36.1888 73.6126 36.5418 73.6126C36.8948 73.6126 37.1808 73.8987 37.1808 74.2516V74.5897C37.1808 75.6282 38.0257 76.4731 39.0642 76.4731H66.919C68.1839 76.4731 69.2129 75.444 69.2129 74.1791V73.3931H50.6389C48.9261 73.3931 47.5326 71.9996 47.5326 70.2868V54.2619C47.5326 52.5491 48.926 51.1556 50.6389 51.1556H63.065C63.418 51.1556 63.704 51.4417 63.704 51.7946C63.704 52.1475 63.418 52.4335 63.065 52.4335H50.6389C49.6308 52.4335 48.8106 53.2537 48.8106 54.2619V70.2867C48.8106 71.2948 49.6308 72.115 50.6389 72.115H71.3586C72.3668 72.115 73.187 71.2948 73.187 70.2867V51.9843C72.7494 52.2684 72.2278 52.4335 71.6684 52.4335H66.1181C65.7651 52.4335 65.4791 52.1474 65.4791 51.7945C65.4791 51.4416 65.7651 51.1555 66.1181 51.1555H69.2129V37.7074C69.2129 36.4393 68.1812 35.4076 66.9132 35.4076H45.6519C45.5138 35.4076 45.3779 35.4224 45.2461 35.4512V41.2702C45.2461 42.4847 44.2579 43.4729 43.0434 43.4729H37.2244C37.1956 43.6047 37.1808 43.7406 37.1808 43.8787V71.2604C37.1808 71.6133 36.8948 71.8994 36.5418 71.8994ZM71.6683 51.1555C72.5056 51.1555 73.1869 50.4743 73.1869 49.6369C73.1869 48.7996 72.5057 48.1184 71.6684 48.1184H70.4909V51.1555H71.6683ZM43.9681 41.2702V36.3113L38.0844 42.1949H43.0433C43.5533 42.195 43.9681 41.7801 43.9681 41.2702Z" fill="#23467C"/>
<path d="M61.5307 68.5631L61.5308 68.5631L66.1766 65.9679C66.5024 65.7859 66.7 65.4496 66.7 65.0952V59.9048C66.7 59.5505 66.5022 59.2141 66.1767 59.0321C66.1767 59.0321 66.1766 59.0321 66.1766 59.032L61.5307 56.4369L61.5307 56.4369C61.2041 56.2544 60.7959 56.2544 60.4692 56.4369L60.4692 56.4369L55.8234 59.0321C55.8234 59.0321 55.8234 59.0321 55.8234 59.0321C55.4977 59.2141 55.3 59.5505 55.3 59.9048V65.0952C55.3 65.4496 55.4976 65.7859 55.8233 65.9678L60.4692 68.5631L60.4692 68.5631C60.7961 68.7457 61.2042 68.7456 61.5307 68.5631ZM65.9304 65.5886L65.9303 65.5886L61.6852 67.96L61.2389 68.2093V67.6981V62.801V62.625L61.3926 62.5391L65.7759 60.0905L66.2222 59.8412V60.3525V65.0952C66.2222 65.3025 66.1073 65.4896 65.9304 65.5886ZM56.0697 65.5886L56.0696 65.5886C55.8925 65.4896 55.7778 65.3024 55.7778 65.0952V60.3525V59.8413L56.2241 60.0906L60.6074 62.5391L60.7611 62.625V62.801V67.6981V68.2093L60.3148 67.96L56.0697 65.5886ZM60.7155 56.8162L60.7156 56.8161C60.8915 56.7179 61.1081 56.7177 61.2844 56.8162C61.2844 56.8162 61.2844 56.8162 61.2844 56.8162L65.5296 59.1875L65.9985 59.4494L65.5296 59.7113L61.1463 62.1598L61 62.2415L60.8537 62.1598L56.4704 59.7113L56.0015 59.4494L56.4704 59.1875L60.7155 56.8162Z" stroke="#23467C" stroke-width="0.6"/>
</g>
<defs>
<clipPath id="clip0_2_473">
<rect width="82" height="82" fill="white"/>
</clipPath>
</defs>
</svg>
