<svg width="85" height="85" viewBox="0 0 85 85" fill="none" xmlns="http://www.w3.org/2000/svg">
<g clip-path="url(#clip0_205_197)">
<path d="M82.5086 80.0192H79.8524V30.8793C79.8524 29.504 78.7375 28.3891 77.3622 28.3891H67.4014C66.0262 28.3891 64.9112 29.504 64.9112 30.8793V80.0192H59.9308V47.4806C59.9308 46.1054 58.8159 44.9904 57.4406 44.9904H47.4798C46.1046 44.9904 44.9896 46.1054 44.9896 47.4806V80.0192H40.0092V56.6114C40.0092 55.2361 38.8943 54.1212 37.519 54.1212H27.5582C26.183 54.1212 25.068 55.2361 25.068 56.6114V80.0192H20.0876V62.5879C20.0876 61.2126 18.9727 60.0977 17.5974 60.0977H7.63661C6.26136 60.0977 5.14641 61.2126 5.14641 62.5879V80.0192H2.4902C1.11495 80.0192 0 81.1342 0 82.5094C0 83.8847 1.11495 84.9996 2.4902 84.9996H82.5086C83.8839 84.9996 84.9988 83.8847 84.9988 82.5094C84.9988 81.1342 83.8839 80.0192 82.5086 80.0192Z" fill="#2A579A"/>
<path d="M2.4902 53.5081C18.032 53.5081 34.886 47.9264 49.9478 37.7912C61.7439 29.8532 71.577 19.7126 77.685 9.329L80.1034 18.3546C80.4016 19.4673 81.8411 20.4285 83.1533 20.1154C84.491 19.7963 85.2699 18.394 84.914 17.0656L80.8362 1.84711C80.4801 0.518834 79.1153 -0.269729 77.7864 0.0863698L62.5679 4.16416C61.2395 4.52009 60.4513 5.88555 60.8072 7.21399C61.1633 8.54243 62.5281 9.33099 63.857 8.97472L73.6609 6.34773C67.9625 16.2498 58.5449 26.0027 47.1672 33.6591C32.9186 43.2474 17.0521 48.5277 2.4902 48.5277C1.11495 48.5277 0 49.6427 0 51.0179C0 52.3932 1.11495 53.5081 2.4902 53.5081Z" fill="#2A579A"/>
</g>
<defs>
<clipPath id="clip0_205_197">
<rect width="85" height="85" fill="white"/>
</clipPath>
</defs>
</svg>
