<svg width="72" height="72" viewBox="0 0 72 72" fill="none" xmlns="http://www.w3.org/2000/svg">
<g clip-path="url(#clip0_205_204)">
<path d="M64.65 2.88C62.94 2.88 61.29 3.48 60 4.5C58.71 3.48 57.06 2.88 55.35 2.88C54.12 2.88 52.95 3.18 51.9 3.69C47.1 1.32 41.7 0 36 0C16.14 0 0 16.14 0 36C0 41.67 1.32 47.07 3.66 51.84C1.47 53.04 0 55.32 0 57.9C0 63.93 8.91 70.44 10.71 71.7C11.1 71.97 11.55 72.12 12 72.12C12.45 72.12 12.9 71.97 13.29 71.7C14.1 71.13 16.29 69.54 18.48 67.44C23.67 70.35 29.64 72 36 72C55.86 72 72 55.86 72 36C72 29.64 70.35 23.67 67.44 18.48C69.84 15.96 72 12.84 72 9.9C72 6.03 68.7 2.88 64.65 2.88ZM14.55 64.89C13.71 65.67 12.84 66.39 12 67.05C8.61 64.44 4.5 60.3 4.5 57.9C4.5 56.97 5.07 56.16 5.91 55.74C6.33 55.5 6.81 55.38 7.35 55.38C7.8 55.38 8.22 55.47 8.58 55.68C9.18 55.92 9.69 56.37 9.96 56.94C10.53 58.17 12.18 58.44 13.26 57.78C13.59 57.6 13.86 57.3 14.04 56.94C14.49 56.01 15.51 55.38 16.65 55.38C18.24 55.38 19.5 56.52 19.5 57.9C19.5 58.92 18.78 60.21 17.67 61.59C17.28 62.16 16.77 62.73 16.2 63.3C15.69 63.84 15.12 64.38 14.55 64.89ZM22.5 24C26.64 24 30 27.36 30 31.5C30 32.73 28.98 33.75 27.75 33.75C26.52 33.75 25.5 32.73 25.5 31.5C25.5 29.85 24.15 28.5 22.5 28.5C20.85 28.5 19.5 29.85 19.5 31.5C19.5 32.73 18.48 33.75 17.25 33.75C16.02 33.75 15 32.73 15 31.5C15 27.36 18.36 24 22.5 24ZM18.66 46.83C17.79 45.93 17.79 44.52 18.66 43.62C19.53 42.75 20.97 42.75 21.84 43.62C22.41 44.19 23.04 44.76 23.67 45.24C27.18 48.03 31.47 49.5 36 49.5C40.53 49.5 44.82 48.03 48.33 45.24C48.96 44.76 49.59 44.19 50.16 43.62C51.03 42.75 52.47 42.75 53.34 43.62C54.21 44.52 54.21 45.93 53.34 46.83C48.72 51.45 42.54 54 36 54C29.46 54 23.28 51.45 18.66 46.83ZM54.75 33.75C53.52 33.75 52.5 32.73 52.5 31.5C52.5 29.85 51.15 28.5 49.5 28.5C47.85 28.5 46.5 29.85 46.5 31.5C46.5 32.73 45.48 33.75 44.25 33.75C43.02 33.75 42 32.73 42 31.5C42 27.36 45.36 24 49.5 24C53.64 24 57 27.36 57 31.5C57 32.73 55.98 33.75 54.75 33.75ZM63.3 16.2C62.76 16.71 62.19 17.22 61.62 17.7C61.08 18.18 60.54 18.63 60 19.05C56.61 16.44 52.5 12.3 52.5 9.9C52.5 9.66 52.53 9.45 52.62 9.24C52.83 8.52 53.43 7.89 54.21 7.59H54.24C54.57 7.44 54.96 7.38 55.35 7.38C56.49 7.38 57.51 8.01 57.96 8.94C58.47 10.02 59.79 10.35 60.84 9.99C61.35 9.81 61.8 9.45 62.04 8.94C62.49 8.01 63.51 7.38 64.65 7.38C66.24 7.38 67.5 8.52 67.5 9.9C67.5 11.16 66.42 12.84 64.89 14.55C64.41 15.09 63.87 15.66 63.3 16.2Z" fill="#2A579A"/>
</g>
<defs>
<clipPath id="clip0_205_204">
<rect width="72" height="72" fill="white"/>
</clipPath>
</defs>
</svg>
