<svg width="91" height="91" viewBox="0 0 91 91" fill="none" xmlns="http://www.w3.org/2000/svg">
<path d="M48.5727 32.9818L49.3533 29.083C52.9321 27.5744 55.4531 24.0297 55.4531 19.9062C55.4531 14.4178 50.987 9.95312 45.5 9.95312C40.013 9.95312 35.5469 14.4178 35.5469 19.9062C35.5469 24.0297 38.0679 27.5744 41.6481 29.083L42.4273 32.9818C42.561 33.6472 43.144 34.125 43.8222 34.125H47.1778C47.856 34.125 48.439 33.6472 48.5727 32.9818ZM46.9219 22.3561V27.3327H44.0781V22.3561C43.2321 21.8642 42.6562 20.957 42.6562 19.9062C42.6562 18.3351 43.9288 17.0625 45.5 17.0625C47.0712 17.0625 48.3438 18.3351 48.3438 19.9062C48.3438 20.9556 47.7679 21.8627 46.9219 22.3561Z" fill="#2A579A"/>
<path d="M27.0156 76.7899L26.9147 76.7785C22.0519 76.7657 17.2957 75.8457 12.777 74.0385L12.7485 74.0272C7.73358 75.6694 4.26562 80.4028 4.26562 85.7107V86.7345H43.0473C39.4926 81.192 33.6558 77.5278 27.0156 76.7899Z" fill="#2A579A"/>
<path d="M12.9376 62.1146C14.887 60.5221 16.2805 58.3495 16.9089 55.8896L16.8194 55.8001C15.143 54.1237 14.2188 51.8885 14.2188 49.5026C14.2188 47.9869 14.7761 46.6446 15.7871 45.6351C16.7966 44.6284 18.1346 44.0739 19.5579 44.0739H19.5693C21.122 44.0767 22.4813 44.6412 23.505 45.6649L23.6941 45.8526L25.6549 41.277C26.7767 38.6594 29.3432 36.9688 32.1898 36.9688H36.9688C38.365 36.9688 39.6689 36.4512 40.6827 35.5753C40.1694 35.0165 39.7954 34.3241 39.639 33.542L39.1328 31.0054C36.909 29.73 35.1758 27.8289 34.0639 25.5938H23.9586C13.0997 25.5938 4.26562 34.4279 4.26562 45.2853C4.26562 50.5462 6.31313 55.4901 10.0342 59.2097L12.9376 62.1146Z" fill="#2A579A"/>
<path d="M24.2552 63.2791C26.3425 64.6697 28.7725 65.4062 31.2807 65.4062C34.4174 65.4062 36.9682 62.8554 36.9682 59.7187V53.006L41.1883 51.5998C41.0462 49.4869 40.4276 44.4179 37.9735 39.7385C37.6422 39.7769 37.308 39.8125 36.9682 39.8125H32.1879C30.4802 39.8125 28.9403 40.8277 28.2663 42.3974L24.6505 50.8334L21.4925 47.6754C21.0034 47.1863 20.3892 46.9787 19.6612 46.919C18.8905 46.919 18.2663 47.1778 17.7942 47.6484C17.3236 48.1205 17.062 48.7475 17.062 49.4158C17.062 51.1277 17.689 52.6492 18.8308 53.7895L20.0593 55.0166L19.6825 56.5138C18.8592 59.8126 16.9297 62.7004 14.2168 64.7209V71.5501C17.871 72.9635 21.6902 73.754 25.5918 73.909V67.1665C24.5766 66.7655 23.5983 66.2593 22.6755 65.6451L21.9589 65.1673L23.5358 62.8013L24.2552 63.2791ZM32.7026 45.5C32.7026 46.2834 33.3396 46.9218 34.1245 46.9218C34.9093 46.9218 35.5463 46.2834 35.5463 45.5H38.3901C38.3901 47.8517 36.4762 49.7656 34.1245 49.7656C31.7727 49.7656 29.8588 47.8517 29.8588 45.5H32.7026Z" fill="#2A579A"/>
<path d="M78.2519 74.0284L78.2248 74.0398C73.7047 75.847 68.95 76.7669 64.0886 76.7797L63.9848 76.7897C57.3446 77.5276 51.5078 81.1918 47.9531 86.7343H86.7348V85.7105C86.7348 80.4026 83.2668 75.6692 78.2519 74.0284Z" fill="#2A579A"/>
<path d="M83.9698 30.8248C82.2962 29.2082 80.1236 28.3692 77.8842 28.4432C77.3254 28.4631 76.7907 28.537 76.2945 28.6636L75.1243 28.9622L74.6409 27.8545C73.283 24.7534 70.2174 22.75 66.8277 22.75C63.9583 22.75 61.3022 24.1747 59.724 26.5635L58.8595 27.8716L57.6423 26.882C57.3267 26.6246 56.9797 26.4142 56.62 26.2307C55.5053 28.1901 53.8815 29.8508 51.8681 31.004L51.3619 33.5378C51.2055 34.3155 50.8372 35.0051 50.3311 35.5611C51.0221 36.1597 51.834 36.6133 52.7198 36.8166C54.4687 37.2162 56.2617 36.8038 57.6438 35.6791L58.8595 34.6881L59.7254 35.9976C61.3022 38.3878 63.9583 39.8125 66.8277 39.8125C67.5073 39.8125 68.1486 39.7357 68.7372 39.5864L69.4396 42.342C68.7159 42.5269 67.9381 42.6164 67.1362 42.6378L67.7021 45.4687C68.7017 44.5701 69.9828 44.0781 71.3378 44.0781C74.338 44.0781 76.7808 46.5195 76.7808 49.5225C76.7808 51.8927 75.858 54.1208 74.1816 55.7986L74.092 55.8896C74.7176 58.331 76.0954 60.4851 78.0207 62.0734C83.6285 56.0347 86.7339 48.2428 86.7339 39.9561V37.3171C86.7339 34.8871 85.7258 32.5211 83.9698 30.8248Z" fill="#2A579A"/>
<path d="M73.9374 49.5226C73.9374 48.0879 72.7714 46.9219 71.3382 46.9219C70.6543 46.9219 69.9846 47.1992 69.4997 47.6827L65.955 51.2274L64.1762 42.3364C61.8671 41.7847 59.7812 40.532 58.22 38.7163C56.6488 39.6007 54.843 39.9277 53.0358 39.7187C50.5646 44.418 49.9503 49.487 49.8096 51.5999L54.0311 53.0062V59.7188C54.0311 62.8555 56.582 65.4063 59.7186 65.4063C62.2268 65.4063 64.6568 64.6698 66.7441 63.2792L67.4607 62.8015L69.0376 65.1675L68.321 65.6452C67.3996 66.2595 66.4213 66.7656 65.4047 67.1666V73.9091C69.3063 73.7542 73.1255 72.9622 76.7797 71.5502V64.7011C74.0724 62.6806 72.1373 59.807 71.314 56.5111L70.9372 55.0167L72.1686 53.7868C73.3103 52.6478 73.9374 51.1321 73.9374 49.5226ZM56.8749 49.7657C54.5231 49.7657 52.6092 47.8519 52.6092 45.5001H55.453C55.453 46.2835 56.09 46.9219 56.8749 46.9219C57.6597 46.9219 58.2967 46.2835 58.2967 45.5001H61.1405C61.1405 47.8519 59.2266 49.7657 56.8749 49.7657Z" fill="#2A579A"/>
<path d="M44.0781 1.42188H46.9219V7.10938H44.0781V1.42188Z" fill="#2A579A"/>
<path d="M37.1182 3.35901L39.7452 2.27011L41.923 7.52413L39.296 8.61304L37.1182 3.35901Z" fill="#2A579A"/>
<path d="M31.4189 7.84161L33.4298 5.83078L37.4515 9.85245L35.4406 11.8633L31.4189 7.84161Z" fill="#2A579A"/>
<path d="M49.0928 7.53113L51.2706 2.2771L53.8976 3.366L51.7198 8.62003L49.0928 7.53113Z" fill="#2A579A"/>
<path d="M53.5391 9.86206L57.5607 5.84039L59.5716 7.85123L55.5499 11.8729L53.5391 9.86206Z" fill="#2A579A"/>
</svg>
