<svg width="79" height="79" viewBox="0 0 79 79" fill="none" xmlns="http://www.w3.org/2000/svg">
<g clip-path="url(#clip0_205_210)">
<path d="M66.9332 39.251C65.0352 37.1506 62.323 35.946 59.492 35.946H45.8287C47.1265 33.0102 48.7854 28.4037 49.5541 22.7414C49.8465 20.5893 49.196 18.4182 47.7699 16.7854C46.3502 15.1598 44.2979 14.2275 42.1396 14.2275C38.5084 14.2275 35.4071 16.8367 34.7654 20.4316C33.8253 25.6971 31.2732 31.0391 29.1572 34.7951C30.0014 35.9449 30.5016 37.3624 30.5016 38.895V74.6791H57.5983C62.7652 74.6791 67.0548 70.8026 67.5762 65.6621L69.4704 46.9875C69.756 44.1712 68.8313 41.3513 66.9332 39.251Z" fill="#2A579A"/>
<path d="M23.5585 36.5806H11.792C10.5138 36.5806 9.47754 37.6169 9.47754 38.8951V76.6855C9.47754 77.9637 10.5138 79 11.792 79H23.5585C24.8367 79 25.873 77.9637 25.873 76.6855V38.8951C25.873 37.6169 24.8367 36.5806 23.5585 36.5806Z" fill="#2A579A"/>
<path d="M52.4095 0.922996C51.2276 0.435418 49.8748 0.998293 49.3873 2.1799L46.9939 7.98146C46.5065 9.16307 47.069 10.5163 48.2508 11.0037C49.4282 11.4896 50.7839 10.9325 51.273 9.74677L53.6664 3.94521C54.1539 2.7636 53.5912 1.41042 52.4095 0.922996Z" fill="#2A579A"/>
<path d="M36.0508 1.61632C35.6649 0.397681 34.3637 -0.277368 33.1455 0.108683C31.9271 0.494734 31.252 1.79546 31.6379 3.01394L33.6185 9.26651C34.0047 10.4858 35.3063 11.1602 36.5237 10.7741C37.7422 10.3881 38.4172 9.08737 38.0314 7.86889L36.0508 1.61632Z" fill="#2A579A"/>
<path d="M28.9971 16.1989L21.0596 11.1568C19.9804 10.471 18.5501 10.7905 17.865 11.8693C17.1796 12.9483 17.4987 14.3787 18.5776 15.0639L26.5151 20.106C27.5959 20.7928 29.0256 20.4702 29.7096 19.3935C30.395 18.3145 30.0759 16.8841 28.9971 16.1989Z" fill="#2A579A"/>
<path d="M66.6438 13.9311C66.0519 12.7983 64.6538 12.359 63.5208 12.9513L55.633 17.0718C54.5 17.6637 54.0613 19.0618 54.6532 20.1948C55.2471 21.3318 56.6475 21.7645 57.7762 21.1746L65.664 17.0541C66.797 16.4622 67.2356 15.0641 66.6438 13.9311Z" fill="#2A579A"/>
</g>
<defs>
<clipPath id="clip0_205_210">
<rect width="79" height="79" fill="white"/>
</clipPath>
</defs>
</svg>
