<svg width="14" height="13" viewBox="0 0 14 13" fill="none" xmlns="http://www.w3.org/2000/svg">
<path d="M7.1187 12.5923C6.92939 12.5923 6.74688 12.5238 6.60464 12.3992C6.06744 11.9294 5.54952 11.4879 5.09258 11.0986L5.09024 11.0966C3.75055 9.95495 2.59368 8.96897 1.78874 7.99776C0.888953 6.91202 0.469849 5.88257 0.469849 4.75796C0.469849 3.6653 0.844516 2.65726 1.52477 1.91938C2.21313 1.17279 3.15766 0.761597 4.18467 0.761597C4.95226 0.761597 5.65524 1.00427 6.274 1.48283C6.58627 1.72439 6.86933 2.02003 7.1187 2.36487C7.36818 2.02003 7.65113 1.72439 7.9635 1.48283C8.58225 1.00427 9.28523 0.761597 10.0528 0.761597C11.0797 0.761597 12.0244 1.17279 12.7128 1.91938C13.393 2.65726 13.7676 3.6653 13.7676 4.75796C13.7676 5.88257 13.3485 6.91202 12.4488 7.99768C11.6439 8.96897 10.487 9.9548 9.14756 11.0964C8.6898 11.4864 8.17108 11.9285 7.63266 12.3993C7.49053 12.5238 7.30791 12.5923 7.1187 12.5923ZM4.18467 1.54056C3.37781 1.54056 2.63659 1.86257 2.09737 2.44735C1.55013 3.04095 1.24871 3.86151 1.24871 4.75796C1.24871 5.70381 1.60024 6.54973 2.38844 7.50076C3.15025 8.42 4.28338 9.38565 5.59538 10.5038L5.59781 10.5058C6.05648 10.8967 6.57643 11.3399 7.11759 11.813C7.66199 11.3389 8.18274 10.8951 8.64232 10.5036C9.95426 9.3855 11.0872 8.42 11.8491 7.50076C12.6372 6.54973 12.9887 5.70381 12.9887 4.75796C12.9887 3.86151 12.6873 3.04095 12.14 2.44735C11.6009 1.86257 10.8596 1.54056 10.0528 1.54056C9.46177 1.54056 8.91907 1.72845 8.43996 2.09896C8.01292 2.42929 7.71545 2.84688 7.54105 3.13906C7.45137 3.28932 7.29351 3.379 7.1187 3.379C6.9439 3.379 6.78604 3.28932 6.69635 3.13906C6.52205 2.84688 6.22459 2.42929 5.79747 2.09896C5.31831 1.72845 4.77564 1.54056 4.18467 1.54056Z" fill="#555555"/>
</svg>
