<svg width="18" height="20" viewBox="0 0 18 20" fill="none" xmlns="http://www.w3.org/2000/svg">
<path d="M16.6359 7.98524L3.14645 0.307871C1.71555 -0.509026 0.256714 0.384372 0.256714 1.99089V18.0182C0.256714 19.3792 1.14279 19.9999 1.96634 19.9999C2.35417 19.9999 2.74931 19.8775 3.1418 19.6387L16.6918 11.3446C17.373 10.9262 17.7555 10.3069 17.7435 9.64497C17.7322 8.98241 17.3291 8.37705 16.6359 7.98524ZM15.7837 9.86317L2.23443 18.1552C2.14329 18.2111 2.07145 18.239 2.02222 18.253C2.00892 18.2038 1.99561 18.1279 1.99561 18.0182V1.99156C1.99561 1.82658 2.02555 1.74343 2.02555 1.72281C2.07877 1.72613 2.1719 1.75341 2.28898 1.81993L15.7764 9.49729C15.9427 9.59242 15.992 9.67491 16.0079 9.65695C15.9993 9.67957 15.9427 9.76405 15.7837 9.86317Z" fill="white"/>
</svg>
